<svg width="285" height="289" viewBox="0 0 285 289" fill="none" xmlns="http://www.w3.org/2000/svg">
<path fill-rule="evenodd" clip-rule="evenodd" d="M141.031 221.122L151.282 222.51L150.962 235.716L140.96 235.84L141.031 221.122ZM140.977 210.425C135.941 170.024 104.67 192.324 82.1018 144.697C63.4852 105.435 91.7305 61.5987 109.457 57.79L113.177 64.8914C111.095 68.1484 108.71 69.1095 105.47 71.8859C84.6291 89.7907 79.6279 123.126 95.1299 147.99C103.851 161.997 111.468 165.521 128.341 174.384C144.733 182.981 145.89 190.491 151.585 210.888L140.977 210.425ZM129.124 56.6331C144.644 55.9746 172.408 68.3442 148.933 40.0455C143.398 33.3712 144.003 34.6349 146.388 26.3589C104.937 25.2198 75.2674 52.148 62.8623 82.0486C44.833 125.475 64.1437 162.086 86.6759 183.532C104.047 200.067 111.184 193.748 110.863 228.757C110.596 258.373 129.32 251.058 156.586 251.2C192.289 251.396 175.577 234.043 182.233 208.414C186.967 190.189 208.236 187.127 213.984 173.921C207.684 173.138 202.362 172.426 196.275 171.412C190.349 170.415 183.621 170.611 179.937 167.354C175.932 161.801 181.984 149.093 180.56 140.906C177.623 139.198 177.25 137.507 173.12 139.607C171.803 140.266 171.18 141.084 170.059 141.956C166.482 144.786 156.159 153.614 152.51 152.226C148.844 148.844 133.342 128.27 131.633 123.108C135.887 114.174 153.685 109.938 149.948 101.359C145.907 96.4827 131.117 96.8742 124.087 94.6317C123.019 86.6582 126.454 62.4886 129.124 56.6331Z" fill="white"/>
<path fill-rule="evenodd" clip-rule="evenodd" d="M180.382 93.3144C177.232 76.264 188.8 61.4205 202.95 58.3236C242.604 49.6739 254.208 109.297 216.085 116.434C197.272 119.976 182.98 107.428 180.382 93.3144ZM263.552 35.1508C255.133 38.9595 248.833 51.2757 235.769 43.9607C220.73 35.5423 233.135 23.066 228.347 14.345C223.222 13.0813 215.622 11.5151 210.265 12.8144C207.898 26.8747 208.948 37.1619 195.386 38.8705C183.728 40.3299 177.997 28.5477 173.031 21.6955C168.884 23.0304 159.576 30.6835 157.494 33.7447C161.712 41.4156 172.853 49.6561 166.624 61.2247C160.039 73.4341 150.072 66.9378 136.474 67.6142L134.481 86.7647C146.797 88.1174 159.558 89.3632 161.107 101.519C162.691 114.013 150.891 117.876 143.896 124.799L155.233 139.358C163.812 137.044 170.006 124.034 183.069 130.494C195.742 136.759 188.622 147.651 189.726 160.413L208.04 162.548C214.251 151.46 207.755 139.215 223.542 136.047C236.695 133.395 240.325 147.669 247.302 152.866C252.286 149.68 257.038 145.106 262.163 142.294C259.049 132.933 245.487 126.419 253.175 112.732C261.452 98.0308 272.913 111.682 283.023 106.342C283.93 98.8139 285.052 94.6848 284.998 88.153C278.146 86.8893 274.462 87.4233 267.699 85.0739C258.088 81.7279 253.674 68.4685 263.623 59.5339C266.755 56.7218 271.881 54.1055 274.853 49.9942C272.29 44.6904 267.574 38.6569 263.552 35.1508Z" fill="white"/>
<path fill-rule="evenodd" clip-rule="evenodd" d="M16.8368 142.063C19.2039 145.926 20.8236 148.204 22.7813 151.407C32.7838 167.781 7.68868 169.116 4.80542 170.504L5.03679 181.326C11.9958 185.045 21.0015 183.07 24.0272 190.563C27.0706 198.091 20.0404 204.427 16.0715 210.194L25.2374 219.057C30.5768 217.028 36.6103 208.823 44.9219 211.635C51.8987 213.985 51.9521 223.898 53.8921 231.178L65.3362 230.857C67.7923 222.866 67.1338 213.896 74.5377 211.618C83.6502 208.823 86.8894 216.69 94.5782 219.128L104.153 208.414C101.662 200.583 93.7416 193.944 86.1775 190.812C78.7914 197.646 76.0683 204.676 61.8122 205.958C37.963 208.076 23.2619 183.586 32.6236 162.994C37.874 151.443 47.6272 149.485 55.3159 146.032L51.8809 131.634C44.1566 150.571 33.7982 136.92 25.2374 133.182C22.1762 135.799 19.2217 137.489 16.8368 142.063Z" fill="white"/>
<path fill-rule="evenodd" clip-rule="evenodd" d="M145.747 288.327C159.665 288.273 167.318 292.314 165.645 276.313L126.08 276.776C125.155 291.993 132.025 288.38 145.747 288.327Z" fill="white"/>
<path fill-rule="evenodd" clip-rule="evenodd" d="M51.5784 1.90438C51.3114 7.43953 59.5696 38.3011 61.7944 41.6649L70.4442 39.7428C68.789 29.4022 63.236 7.15477 60.5663 0L51.5784 1.90438Z" fill="white"/>
<path fill-rule="evenodd" clip-rule="evenodd" d="M9.14813 35.0979C12.8857 39.0313 38.7283 57.7725 42.8396 59.3387L48.9443 51.3652C39.0131 46.9157 22.9059 32.9622 13.4552 27.249C10.8033 31.307 10.8745 29.9009 9.14813 35.0979Z" fill="white"/>
<path fill-rule="evenodd" clip-rule="evenodd" d="M1.49503 94.2222C11.6754 96.8741 30.559 86.0529 41.9497 87.014L39.5648 76.2107L0 86.0529L1.49503 94.2222Z" fill="white"/>
<path fill-rule="evenodd" clip-rule="evenodd" d="M268.41 238.208C265.42 231.925 258.746 228.579 254.083 224.628C250.702 221.762 243.298 214.999 239.168 213.397C235.947 216.049 235.911 216.014 233.669 220.605L262.074 244.757C264.531 242.853 266.204 241.287 268.41 238.208Z" fill="white"/>
<path fill-rule="evenodd" clip-rule="evenodd" d="M126.063 266.222L165.877 266.008L165.538 256.237L125.885 256.504L126.063 266.222Z" fill="white"/>
<path fill-rule="evenodd" clip-rule="evenodd" d="M242.426 195.279C248.726 197.023 269.478 196.4 275.832 196.24L275.886 186.273L241.108 186.22L241.34 194.87C241.678 195.048 242.141 195.208 242.426 195.279Z" fill="white"/>
<path fill-rule="evenodd" clip-rule="evenodd" d="M211.048 261.149L221.121 260.722L220.908 226.354L210.994 226.301L211.048 261.149Z" fill="white"/>
<path fill-rule="evenodd" clip-rule="evenodd" d="M218.968 167.496C220.374 166.019 238.101 144.982 222.883 146.441C219.965 151.122 218.808 160.876 218.968 167.496Z" fill="white"/>
</svg>
