<svg width="2563" height="519" viewBox="0 0 2563 519" fill="none" xmlns="http://www.w3.org/2000/svg">
<path d="M809.25 124C809.25 134.166 806.917 143.5 802.25 152C797.583 160.333 790.417 167.083 780.75 172.25C771.083 177.416 759.083 180 744.75 180H718.25V243H675.5V67.4995H744.75C758.75 67.4995 770.583 69.9162 780.25 74.7495C789.917 79.5828 797.167 86.2495 802 94.7495C806.833 103.249 809.25 113 809.25 124ZM741.5 146C749.667 146 755.75 144.083 759.75 140.25C763.75 136.416 765.75 131 765.75 124C765.75 117 763.75 111.583 759.75 107.75C755.75 103.916 749.667 102 741.5 102H718.25V146H741.5ZM931.006 243L894.506 176.75H884.256V243H841.506V67.4995H913.256C927.089 67.4995 938.839 69.9162 948.506 74.7495C958.339 79.5828 965.673 86.2495 970.506 94.7495C975.339 103.083 977.756 112.416 977.756 122.75C977.756 134.416 974.423 144.833 967.756 154C961.256 163.166 951.589 169.666 938.756 173.5L979.256 243H931.006ZM884.256 146.5H910.756C918.589 146.5 924.423 144.583 928.256 140.75C932.256 136.916 934.256 131.5 934.256 124.5C934.256 117.833 932.256 112.583 928.256 108.75C924.423 104.916 918.589 103 910.756 103H884.256V146.5ZM1097.59 244.75C1081.09 244.75 1065.93 240.916 1052.09 233.25C1038.43 225.583 1027.51 214.916 1019.34 201.25C1011.34 187.416 1007.34 171.916 1007.34 154.75C1007.34 137.583 1011.34 122.166 1019.34 108.499C1027.51 94.8328 1038.43 84.1662 1052.09 76.4995C1065.93 68.8328 1081.09 64.9995 1097.59 64.9995C1114.09 64.9995 1129.18 68.8328 1142.84 76.4995C1156.68 84.1662 1167.51 94.8328 1175.34 108.499C1183.34 122.166 1187.34 137.583 1187.34 154.75C1187.34 171.916 1183.34 187.416 1175.34 201.25C1167.34 214.916 1156.51 225.583 1142.84 233.25C1129.18 240.916 1114.09 244.75 1097.59 244.75ZM1097.59 205.75C1111.59 205.75 1122.76 201.083 1131.09 191.75C1139.59 182.416 1143.84 170.083 1143.84 154.75C1143.84 139.25 1139.59 126.916 1131.09 117.75C1122.76 108.416 1111.59 103.75 1097.59 103.75C1083.43 103.75 1072.09 108.333 1063.59 117.5C1055.26 126.666 1051.09 139.083 1051.09 154.75C1051.09 170.25 1055.26 182.666 1063.59 192C1072.09 201.166 1083.43 205.75 1097.59 205.75ZM1331.13 67.4995V187C1331.13 205.5 1325.88 219.75 1315.38 229.75C1305.04 239.75 1291.04 244.75 1273.38 244.75C1254.88 244.75 1240.04 239.5 1228.88 229C1217.71 218.5 1212.13 203.583 1212.13 184.25H1254.63C1254.63 191.583 1256.13 197.166 1259.13 201C1262.13 204.666 1266.46 206.5 1272.13 206.5C1277.29 206.5 1281.29 204.833 1284.13 201.5C1286.96 198.166 1288.38 193.333 1288.38 187V67.4995H1331.13ZM1418.41 101.75V137.25H1475.66V170.25H1418.41V208.75H1483.16V243H1375.66V67.4995H1483.16V101.75H1418.41ZM1513.66 155C1513.66 137.666 1517.41 122.25 1524.91 108.75C1532.41 95.0828 1542.83 84.4995 1556.16 76.9995C1569.66 69.3328 1584.91 65.4995 1601.91 65.4995C1622.74 65.4995 1640.58 70.9995 1655.41 81.9995C1670.24 92.9995 1680.16 108 1685.16 127H1638.16C1634.66 119.666 1629.66 114.083 1623.16 110.25C1616.83 106.416 1609.58 104.5 1601.41 104.5C1588.24 104.5 1577.58 109.083 1569.41 118.25C1561.24 127.416 1557.16 139.666 1557.16 155C1557.16 170.333 1561.24 182.583 1569.41 191.75C1577.58 200.916 1588.24 205.5 1601.41 205.5C1609.58 205.5 1616.83 203.583 1623.16 199.75C1629.66 195.916 1634.66 190.333 1638.16 183H1685.16C1680.16 202 1670.24 217 1655.41 228C1640.58 238.833 1622.74 244.25 1601.91 244.25C1584.91 244.25 1569.66 240.5 1556.16 233C1542.83 225.333 1532.41 214.75 1524.91 201.25C1517.41 187.75 1513.66 172.333 1513.66 155ZM1847.59 67.4995V101.75H1801.09V243H1758.34V101.75H1711.84V67.4995H1847.59Z" fill="#1E88E5"/>
<path d="M874.25 323.5V499H831.5V393.75L792.25 499H757.75L718.25 393.5V499H675.5V323.5H726L775.25 445L824 323.5H874.25ZM1024.24 468H958.742L948.242 499H903.492L966.992 323.5H1016.49L1079.99 499H1034.74L1024.24 468ZM1013.24 435L991.492 370.75L969.992 435H1013.24ZM1266.32 499H1223.57L1152.07 390.75V499H1109.32V323.5H1152.07L1223.57 432.25V323.5H1266.32V499ZM1416.56 468H1351.06L1340.56 499H1295.81L1359.31 323.5H1408.81L1472.31 499H1427.06L1416.56 468ZM1405.56 435L1383.81 370.75L1362.31 435H1405.56ZM1618.13 379C1614.97 373.166 1610.38 368.749 1604.38 365.749C1598.55 362.583 1591.63 361 1583.63 361C1569.8 361 1558.72 365.583 1550.38 374.75C1542.05 383.75 1537.88 395.833 1537.88 411C1537.88 427.166 1542.22 439.833 1550.88 449C1559.72 458 1571.8 462.5 1587.13 462.5C1597.63 462.5 1606.47 459.833 1613.63 454.5C1620.97 449.166 1626.3 441.5 1629.63 431.5H1575.38V400H1668.38V439.75C1665.22 450.416 1659.8 460.333 1652.13 469.5C1644.63 478.666 1635.05 486.083 1623.38 491.75C1611.72 497.416 1598.55 500.25 1583.88 500.25C1566.55 500.25 1551.05 496.5 1537.38 489C1523.88 481.333 1513.3 470.75 1505.63 457.25C1498.13 443.75 1494.38 428.333 1494.38 411C1494.38 393.666 1498.13 378.25 1505.63 364.75C1513.3 351.083 1523.88 340.5 1537.38 333C1550.88 325.333 1566.3 321.5 1583.63 321.5C1604.63 321.5 1622.3 326.583 1636.63 336.749C1651.13 346.916 1660.72 361 1665.38 379H1618.13ZM1744.81 357.75V393.25H1802.06V426.25H1744.81V464.75H1809.56V499H1702.06V323.5H1809.56V357.75H1744.81ZM2046.07 323.5V499H2003.32V393.75L1964.07 499H1929.57L1890.07 393.5V499H1847.32V323.5H1897.82L1947.07 445L1995.82 323.5H2046.07ZM2129.56 357.75V393.25H2186.81V426.25H2129.56V464.75H2194.31V499H2086.81V323.5H2194.31V357.75H2129.56ZM2389.06 499H2346.31L2274.81 390.75V499H2232.06V323.5H2274.81L2346.31 432.25V323.5H2389.06V499ZM2556.3 323.5V357.75H2509.8V499H2467.05V357.75H2420.55V323.5H2556.3Z" fill="#1E88E5"/>
<path fill-rule="evenodd" clip-rule="evenodd" d="M275.701 393.177L291.744 395.349L291.242 416.016L275.589 416.211L275.701 393.177ZM275.617 376.438C267.735 313.213 218.799 348.112 183.482 273.58C154.349 212.138 198.55 143.538 226.291 137.577L232.112 148.691C228.853 153.787 225.121 155.291 220.052 159.636C187.437 187.656 179.611 239.823 203.87 278.732C217.518 300.652 229.438 306.167 255.842 320.037C281.494 333.49 283.304 345.243 292.217 377.162L275.617 376.438ZM257.068 135.767C281.355 134.737 324.804 154.094 288.067 109.809C279.405 99.3643 280.352 101.342 284.084 88.3905C219.217 86.608 172.787 128.748 153.374 175.54C125.16 243.499 155.379 300.791 190.64 334.353C217.824 360.228 228.993 350.34 228.491 405.126C228.074 451.472 257.374 440.024 300.044 440.247C355.915 440.554 329.762 413.398 340.179 373.291C347.587 344.77 380.871 339.979 389.867 319.313C380.007 318.087 371.679 316.973 362.154 315.386C352.879 313.826 342.351 314.132 336.586 309.036C330.319 300.346 339.789 280.459 337.56 267.647C332.965 264.973 332.38 262.327 325.918 265.614C323.857 266.644 322.882 267.926 321.128 269.29C315.529 273.719 299.375 287.534 293.665 285.361C287.928 280.069 263.669 247.872 260.995 239.795C267.651 225.813 295.504 219.184 289.655 205.76C283.332 198.128 260.187 198.741 249.185 195.232C247.514 182.754 252.89 144.93 257.068 135.767Z" fill="#1E88E5"/>
<path fill-rule="evenodd" clip-rule="evenodd" d="M337.282 193.171C332.352 166.489 350.456 143.26 372.599 138.414C434.653 124.877 452.813 218.182 393.153 229.351C363.714 234.894 341.348 215.258 337.282 193.171ZM467.435 102.15C454.261 108.11 444.401 127.384 423.958 115.937C400.423 102.763 419.836 83.2385 412.344 69.5909C404.322 67.6134 392.429 65.1624 384.046 67.1956C380.341 89.1988 381.985 105.297 360.761 107.971C342.518 110.255 333.55 91.8169 325.779 81.0938C319.289 83.1828 304.723 95.1592 301.464 99.9498C308.065 111.954 325.5 124.85 315.752 142.954C305.447 162.06 289.85 151.894 268.571 152.952L265.451 182.921C284.725 185.038 304.695 186.988 307.118 206.011C309.597 225.563 291.131 231.607 280.185 242.442L297.927 265.225C311.352 261.604 321.044 241.244 341.488 251.354C361.318 261.158 350.178 278.204 351.904 298.174L380.564 301.516C390.285 284.164 380.119 265.002 404.824 260.044C425.406 255.894 431.088 278.232 442.006 286.364C449.805 281.379 457.241 274.221 465.263 269.82C460.389 255.17 439.165 244.976 451.197 223.558C464.149 200.552 482.085 221.915 497.906 213.559C499.326 201.777 501.081 195.316 500.997 185.094C490.274 183.116 484.509 183.952 473.925 180.275C458.885 175.039 451.977 154.289 467.547 140.308C472.449 135.907 480.47 131.813 485.121 125.379C481.111 117.079 473.73 107.637 467.435 102.15Z" fill="#1E88E5"/>
<path fill-rule="evenodd" clip-rule="evenodd" d="M81.3482 269.459C85.0526 275.503 87.5871 279.068 90.6508 284.081C106.304 309.705 67.0322 311.794 62.5201 313.966L62.8822 330.901C73.7724 336.722 87.8656 333.63 92.6005 345.356C97.3632 357.137 86.3616 367.053 80.1506 376.077L94.4944 389.947C102.85 386.772 112.292 373.932 125.299 378.333C136.217 382.009 136.301 397.523 139.336 408.914L157.245 408.413C161.089 395.908 160.058 381.87 171.645 378.305C185.905 373.932 190.974 386.243 203.007 390.059L217.991 373.292C214.092 361.037 201.698 350.648 189.86 345.746C178.302 356.441 174.04 367.443 151.731 369.448C114.409 372.762 91.4029 334.438 106.053 302.213C114.269 284.137 129.532 281.073 141.565 275.67L136.189 253.137C124.101 282.772 107.891 261.409 94.4944 255.56C89.7039 259.655 85.0804 262.301 81.3482 269.459Z" fill="#1E88E5"/>
<g filter="url(#filter0_d_92_46)">
<path fill-rule="evenodd" clip-rule="evenodd" d="M283.081 498.347C304.862 498.264 316.838 504.586 314.22 479.547L252.305 480.271C250.856 504.085 261.607 498.431 283.081 498.347Z" fill="#1E88E5"/>
</g>
<g filter="url(#filter1_d_92_46)">
<path fill-rule="evenodd" clip-rule="evenodd" d="M135.716 50.1218C135.298 58.7838 148.221 107.079 151.703 112.344L165.239 109.336C162.649 93.1534 153.959 58.3382 149.781 47.1416L135.716 50.1218Z" fill="#FF9100"/>
</g>
<g filter="url(#filter2_d_92_46)">
<path fill-rule="evenodd" clip-rule="evenodd" d="M69.316 102.067C75.165 108.222 115.606 137.551 122.04 140.002L131.594 127.524C116.052 120.561 90.8458 98.7247 76.0563 89.7842C71.9063 96.1345 72.0177 93.9342 69.316 102.067Z" fill="#FF9100"/>
</g>
<g filter="url(#filter3_d_92_46)">
<path fill-rule="evenodd" clip-rule="evenodd" d="M57.3396 194.591C73.271 198.741 102.822 181.807 120.648 183.311L116.915 166.405L55 181.807L57.3396 194.591Z" fill="#FF9100"/>
</g>
<g filter="url(#filter4_d_92_46)">
<path fill-rule="evenodd" clip-rule="evenodd" d="M475.039 419.916C470.359 410.084 459.915 404.848 452.618 398.665C447.326 394.18 435.739 383.597 429.277 381.09C424.236 385.24 424.181 385.184 420.671 392.37L465.123 430.165C468.967 427.185 471.585 424.734 475.039 419.916Z" fill="#FF9100"/>
</g>
<path fill-rule="evenodd" clip-rule="evenodd" d="M252.277 463.754L314.582 463.42L314.053 448.129L251.999 448.547L252.277 463.754Z" fill="#1E88E5"/>
<g filter="url(#filter5_d_92_46)">
<path fill-rule="evenodd" clip-rule="evenodd" d="M434.375 352.736C444.234 355.466 476.71 354.491 486.653 354.24L486.737 338.643L432.314 338.56L432.676 352.096C433.205 352.374 433.929 352.625 434.375 352.736Z" fill="#FF9100"/>
</g>
<g filter="url(#filter6_d_92_46)">
<path fill-rule="evenodd" clip-rule="evenodd" d="M385.271 455.817L401.036 455.148L400.701 401.366L385.188 401.282L385.271 455.817Z" fill="#FF9100"/>
</g>
<path fill-rule="evenodd" clip-rule="evenodd" d="M397.666 309.259C399.866 306.948 427.607 274.026 403.793 276.31C399.225 283.635 397.415 298.898 397.666 309.259Z" fill="#1E88E5"/>
<defs>
<filter id="filter0_d_92_46" x="248.175" y="479.547" width="70.4004" height="27.4531" filterUnits="userSpaceOnUse" color-interpolation-filters="sRGB">
<feFlood flood-opacity="0" result="BackgroundImageFix"/>
<feColorMatrix in="SourceAlpha" type="matrix" values="0 0 0 0 0 0 0 0 0 0 0 0 0 0 0 0 0 0 127 0" result="hardAlpha"/>
<feOffset dy="4"/>
<feGaussianBlur stdDeviation="2"/>
<feComposite in2="hardAlpha" operator="out"/>
<feColorMatrix type="matrix" values="0 0 0 0 0 0 0 0 0 0 0 0 0 0 0 0 0 0 0.25 0"/>
<feBlend mode="normal" in2="BackgroundImageFix" result="effect1_dropShadow_92_46"/>
<feBlend mode="normal" in="SourceGraphic" in2="effect1_dropShadow_92_46" result="shape"/>
</filter>
<filter id="filter1_d_92_46" x="81.1058" y="0.541603" width="138.733" height="174.402" filterUnits="userSpaceOnUse" color-interpolation-filters="sRGB">
<feFlood flood-opacity="0" result="BackgroundImageFix"/>
<feColorMatrix in="SourceAlpha" type="matrix" values="0 0 0 0 0 0 0 0 0 0 0 0 0 0 0 0 0 0 127 0" result="hardAlpha"/>
<feOffset dy="8"/>
<feGaussianBlur stdDeviation="27.3"/>
<feComposite in2="hardAlpha" operator="out"/>
<feColorMatrix type="matrix" values="0 0 0 0 1 0 0 0 0 0.564706 0 0 0 0 0 0 0 0 1 0"/>
<feBlend mode="normal" in2="BackgroundImageFix" result="effect1_dropShadow_92_46"/>
<feBlend mode="normal" in="SourceGraphic" in2="effect1_dropShadow_92_46" result="shape"/>
</filter>
<filter id="filter2_d_92_46" x="14.716" y="43.1842" width="171.477" height="159.417" filterUnits="userSpaceOnUse" color-interpolation-filters="sRGB">
<feFlood flood-opacity="0" result="BackgroundImageFix"/>
<feColorMatrix in="SourceAlpha" type="matrix" values="0 0 0 0 0 0 0 0 0 0 0 0 0 0 0 0 0 0 127 0" result="hardAlpha"/>
<feOffset dy="8"/>
<feGaussianBlur stdDeviation="27.3"/>
<feComposite in2="hardAlpha" operator="out"/>
<feColorMatrix type="matrix" values="0 0 0 0 1 0 0 0 0 0.564706 0 0 0 0 0 0 0 0 1 0"/>
<feBlend mode="normal" in2="BackgroundImageFix" result="effect1_dropShadow_92_46"/>
<feBlend mode="normal" in="SourceGraphic" in2="effect1_dropShadow_92_46" result="shape"/>
</filter>
<filter id="filter3_d_92_46" x="0.400002" y="119.805" width="174.848" height="138.043" filterUnits="userSpaceOnUse" color-interpolation-filters="sRGB">
<feFlood flood-opacity="0" result="BackgroundImageFix"/>
<feColorMatrix in="SourceAlpha" type="matrix" values="0 0 0 0 0 0 0 0 0 0 0 0 0 0 0 0 0 0 127 0" result="hardAlpha"/>
<feOffset dy="8"/>
<feGaussianBlur stdDeviation="27.3"/>
<feComposite in2="hardAlpha" operator="out"/>
<feColorMatrix type="matrix" values="0 0 0 0 1 0 0 0 0 0.564706 0 0 0 0 0 0 0 0 1 0"/>
<feBlend mode="normal" in2="BackgroundImageFix" result="effect1_dropShadow_92_46"/>
<feBlend mode="normal" in="SourceGraphic" in2="effect1_dropShadow_92_46" result="shape"/>
</filter>
<filter id="filter4_d_92_46" x="366.071" y="334.49" width="163.567" height="158.276" filterUnits="userSpaceOnUse" color-interpolation-filters="sRGB">
<feFlood flood-opacity="0" result="BackgroundImageFix"/>
<feColorMatrix in="SourceAlpha" type="matrix" values="0 0 0 0 0 0 0 0 0 0 0 0 0 0 0 0 0 0 127 0" result="hardAlpha"/>
<feOffset dy="8"/>
<feGaussianBlur stdDeviation="27.3"/>
<feComposite in2="hardAlpha" operator="out"/>
<feColorMatrix type="matrix" values="0 0 0 0 1 0 0 0 0 0.564706 0 0 0 0 0 0 0 0 1 0"/>
<feBlend mode="normal" in2="BackgroundImageFix" result="effect1_dropShadow_92_46"/>
<feBlend mode="normal" in="SourceGraphic" in2="effect1_dropShadow_92_46" result="shape"/>
</filter>
<filter id="filter5_d_92_46" x="377.714" y="291.96" width="163.623" height="125.256" filterUnits="userSpaceOnUse" color-interpolation-filters="sRGB">
<feFlood flood-opacity="0" result="BackgroundImageFix"/>
<feColorMatrix in="SourceAlpha" type="matrix" values="0 0 0 0 0 0 0 0 0 0 0 0 0 0 0 0 0 0 127 0" result="hardAlpha"/>
<feOffset dy="8"/>
<feGaussianBlur stdDeviation="27.3"/>
<feComposite in2="hardAlpha" operator="out"/>
<feColorMatrix type="matrix" values="0 0 0 0 1 0 0 0 0 0.564706 0 0 0 0 0 0 0 0 1 0"/>
<feBlend mode="normal" in2="BackgroundImageFix" result="effect1_dropShadow_92_46"/>
<feBlend mode="normal" in="SourceGraphic" in2="effect1_dropShadow_92_46" result="shape"/>
</filter>
<filter id="filter6_d_92_46" x="330.588" y="354.682" width="125.048" height="163.735" filterUnits="userSpaceOnUse" color-interpolation-filters="sRGB">
<feFlood flood-opacity="0" result="BackgroundImageFix"/>
<feColorMatrix in="SourceAlpha" type="matrix" values="0 0 0 0 0 0 0 0 0 0 0 0 0 0 0 0 0 0 127 0" result="hardAlpha"/>
<feOffset dy="8"/>
<feGaussianBlur stdDeviation="27.3"/>
<feComposite in2="hardAlpha" operator="out"/>
<feColorMatrix type="matrix" values="0 0 0 0 1 0 0 0 0 0.564706 0 0 0 0 0 0 0 0 1 0"/>
<feBlend mode="normal" in2="BackgroundImageFix" result="effect1_dropShadow_92_46"/>
<feBlend mode="normal" in="SourceGraphic" in2="effect1_dropShadow_92_46" result="shape"/>
</filter>
</defs>
</svg>
